<mxfile host="app.diagrams.net" agent="Mozilla/5.0 (Macintosh; Intel Mac OS X 10_15_7) AppleWebKit/537.36 (KHTML, like Gecko) Chrome/136.0.0.0 Safari/537.36" version="24.7.11">
  <diagram name="PÃ¡gina-1" id="z_BYs7hyhr4LAa7bq564">
    <mxGraphModel dx="1195" dy="654" grid="1" gridSize="10" guides="1" tooltips="1" connect="1" arrows="1" fold="1" page="1" pageScale="1" pageWidth="827" pageHeight="1169" math="0" shadow="0">
      <root>
        <mxCell id="0" />
        <mxCell id="1" parent="0" />
        <mxCell id="u2UcSdKVZBB4pQWKURJg-47" value="" style="edgeStyle=orthogonalEdgeStyle;rounded=0;orthogonalLoop=1;jettySize=auto;html=1;" edge="1" parent="1" source="u2UcSdKVZBB4pQWKURJg-1" target="u2UcSdKVZBB4pQWKURJg-2">
          <mxGeometry relative="1" as="geometry" />
        </mxCell>
        <mxCell id="u2UcSdKVZBB4pQWKURJg-1" value="" style="image;html=1;image=img/lib/clip_art/computers/Server_128x128.png" vertex="1" parent="1">
          <mxGeometry x="359" y="20" width="110" height="100" as="geometry" />
        </mxCell>
        <mxCell id="u2UcSdKVZBB4pQWKURJg-49" value="" style="edgeStyle=orthogonalEdgeStyle;rounded=0;orthogonalLoop=1;jettySize=auto;html=1;entryX=0.5;entryY=0;entryDx=0;entryDy=0;" edge="1" parent="1" source="u2UcSdKVZBB4pQWKURJg-2" target="u2UcSdKVZBB4pQWKURJg-14">
          <mxGeometry relative="1" as="geometry">
            <mxPoint x="311" y="212.0000000000001" as="targetPoint" />
          </mxGeometry>
        </mxCell>
        <mxCell id="u2UcSdKVZBB4pQWKURJg-51" value="" style="edgeStyle=orthogonalEdgeStyle;rounded=0;orthogonalLoop=1;jettySize=auto;html=1;entryX=0.5;entryY=0;entryDx=0;entryDy=0;" edge="1" parent="1" source="u2UcSdKVZBB4pQWKURJg-2" target="u2UcSdKVZBB4pQWKURJg-16">
          <mxGeometry relative="1" as="geometry">
            <mxPoint x="311" y="212.0000000000001" as="targetPoint" />
          </mxGeometry>
        </mxCell>
        <mxCell id="u2UcSdKVZBB4pQWKURJg-53" value="" style="edgeStyle=orthogonalEdgeStyle;rounded=0;orthogonalLoop=1;jettySize=auto;html=1;entryX=0.5;entryY=0;entryDx=0;entryDy=0;" edge="1" parent="1" source="u2UcSdKVZBB4pQWKURJg-2" target="u2UcSdKVZBB4pQWKURJg-19">
          <mxGeometry relative="1" as="geometry">
            <mxPoint x="310" y="320" as="targetPoint" />
          </mxGeometry>
        </mxCell>
        <mxCell id="u2UcSdKVZBB4pQWKURJg-55" value="" style="edgeStyle=orthogonalEdgeStyle;rounded=0;orthogonalLoop=1;jettySize=auto;html=1;entryX=0.5;entryY=0;entryDx=0;entryDy=0;" edge="1" parent="1" source="u2UcSdKVZBB4pQWKURJg-2" target="u2UcSdKVZBB4pQWKURJg-30">
          <mxGeometry relative="1" as="geometry">
            <mxPoint x="515.8000000000002" y="212.0000000000001" as="targetPoint" />
          </mxGeometry>
        </mxCell>
        <mxCell id="u2UcSdKVZBB4pQWKURJg-57" value="" style="edgeStyle=orthogonalEdgeStyle;rounded=0;orthogonalLoop=1;jettySize=auto;html=1;entryX=0.5;entryY=0;entryDx=0;entryDy=0;" edge="1" parent="1" source="u2UcSdKVZBB4pQWKURJg-2" target="u2UcSdKVZBB4pQWKURJg-28">
          <mxGeometry relative="1" as="geometry">
            <mxPoint x="515.8000000000002" y="212.0000000000001" as="targetPoint" />
          </mxGeometry>
        </mxCell>
        <mxCell id="u2UcSdKVZBB4pQWKURJg-59" value="" style="edgeStyle=orthogonalEdgeStyle;rounded=0;orthogonalLoop=1;jettySize=auto;html=1;entryX=0.5;entryY=0;entryDx=0;entryDy=0;" edge="1" parent="1" source="u2UcSdKVZBB4pQWKURJg-2" target="u2UcSdKVZBB4pQWKURJg-21">
          <mxGeometry relative="1" as="geometry">
            <mxPoint x="515.8000000000002" y="212.0000000000001" as="targetPoint" />
          </mxGeometry>
        </mxCell>
        <mxCell id="u2UcSdKVZBB4pQWKURJg-61" value="" style="edgeStyle=orthogonalEdgeStyle;rounded=0;orthogonalLoop=1;jettySize=auto;html=1;" edge="1" parent="1" source="u2UcSdKVZBB4pQWKURJg-2">
          <mxGeometry relative="1" as="geometry">
            <mxPoint x="410" y="320" as="targetPoint" />
          </mxGeometry>
        </mxCell>
        <mxCell id="u2UcSdKVZBB4pQWKURJg-2" value="" style="shadow=0;dashed=0;html=1;strokeColor=none;fillColor=#4495D1;labelPosition=center;verticalLabelPosition=bottom;verticalAlign=top;align=center;outlineConnect=0;shape=mxgraph.veeam.2d.virtual_machine;" vertex="1" parent="1">
          <mxGeometry x="391" y="190" width="44.8" height="44" as="geometry" />
        </mxCell>
        <mxCell id="u2UcSdKVZBB4pQWKURJg-62" value="" style="edgeStyle=orthogonalEdgeStyle;rounded=0;orthogonalLoop=1;jettySize=auto;html=1;" edge="1" parent="1" source="u2UcSdKVZBB4pQWKURJg-4" target="u2UcSdKVZBB4pQWKURJg-1">
          <mxGeometry relative="1" as="geometry" />
        </mxCell>
        <mxCell id="u2UcSdKVZBB4pQWKURJg-4" value="HOST - FISICO" style="text;html=1;align=center;verticalAlign=middle;whiteSpace=wrap;rounded=0;" vertex="1" parent="1">
          <mxGeometry x="510" y="55" width="90" height="30" as="geometry" />
        </mxCell>
        <mxCell id="u2UcSdKVZBB4pQWKURJg-22" value="" style="edgeStyle=orthogonalEdgeStyle;rounded=0;orthogonalLoop=1;jettySize=auto;html=1;" edge="1" parent="1" source="u2UcSdKVZBB4pQWKURJg-5" target="u2UcSdKVZBB4pQWKURJg-2">
          <mxGeometry relative="1" as="geometry" />
        </mxCell>
        <mxCell id="u2UcSdKVZBB4pQWKURJg-5" value="FIREWALL&lt;div&gt;10.0.2.0/30&lt;/div&gt;" style="text;html=1;align=center;verticalAlign=middle;whiteSpace=wrap;rounded=0;" vertex="1" parent="1">
          <mxGeometry x="291" y="140" width="90" height="30" as="geometry" />
        </mxCell>
        <mxCell id="u2UcSdKVZBB4pQWKURJg-35" value="" style="edgeStyle=orthogonalEdgeStyle;rounded=0;orthogonalLoop=1;jettySize=auto;html=1;" edge="1" parent="1" source="u2UcSdKVZBB4pQWKURJg-7" target="u2UcSdKVZBB4pQWKURJg-32">
          <mxGeometry relative="1" as="geometry" />
        </mxCell>
        <mxCell id="u2UcSdKVZBB4pQWKURJg-7" value="" style="shadow=0;dashed=0;html=1;strokeColor=none;fillColor=#4495D1;labelPosition=center;verticalLabelPosition=bottom;verticalAlign=top;align=center;outlineConnect=0;shape=mxgraph.veeam.2d.virtual_machine;" vertex="1" parent="1">
          <mxGeometry x="91.59999999999997" y="383" width="44.8" height="44" as="geometry" />
        </mxCell>
        <mxCell id="u2UcSdKVZBB4pQWKURJg-36" value="" style="edgeStyle=orthogonalEdgeStyle;rounded=0;orthogonalLoop=1;jettySize=auto;html=1;" edge="1" parent="1" source="u2UcSdKVZBB4pQWKURJg-8" target="u2UcSdKVZBB4pQWKURJg-33">
          <mxGeometry relative="1" as="geometry" />
        </mxCell>
        <mxCell id="u2UcSdKVZBB4pQWKURJg-8" value="" style="shadow=0;dashed=0;html=1;strokeColor=none;fillColor=#4495D1;labelPosition=center;verticalLabelPosition=bottom;verticalAlign=top;align=center;outlineConnect=0;shape=mxgraph.veeam.2d.virtual_machine;" vertex="1" parent="1">
          <mxGeometry x="191.59999999999997" y="383" width="44.8" height="44" as="geometry" />
        </mxCell>
        <mxCell id="u2UcSdKVZBB4pQWKURJg-38" value="" style="edgeStyle=orthogonalEdgeStyle;rounded=0;orthogonalLoop=1;jettySize=auto;html=1;" edge="1" parent="1" source="u2UcSdKVZBB4pQWKURJg-9" target="u2UcSdKVZBB4pQWKURJg-37">
          <mxGeometry relative="1" as="geometry" />
        </mxCell>
        <mxCell id="u2UcSdKVZBB4pQWKURJg-9" value="" style="shadow=0;dashed=0;html=1;strokeColor=none;fillColor=#4495D1;labelPosition=center;verticalLabelPosition=bottom;verticalAlign=top;align=center;outlineConnect=0;shape=mxgraph.veeam.2d.virtual_machine;" vertex="1" parent="1">
          <mxGeometry x="291.59999999999997" y="383" width="44.8" height="44" as="geometry" />
        </mxCell>
        <mxCell id="u2UcSdKVZBB4pQWKURJg-40" value="" style="edgeStyle=orthogonalEdgeStyle;rounded=0;orthogonalLoop=1;jettySize=auto;html=1;" edge="1" parent="1" source="u2UcSdKVZBB4pQWKURJg-10" target="u2UcSdKVZBB4pQWKURJg-39">
          <mxGeometry relative="1" as="geometry" />
        </mxCell>
        <mxCell id="u2UcSdKVZBB4pQWKURJg-10" value="" style="shadow=0;dashed=0;html=1;strokeColor=none;fillColor=#4495D1;labelPosition=center;verticalLabelPosition=bottom;verticalAlign=top;align=center;outlineConnect=0;shape=mxgraph.veeam.2d.virtual_machine;" vertex="1" parent="1">
          <mxGeometry x="391.6" y="383" width="44.8" height="44" as="geometry" />
        </mxCell>
        <mxCell id="u2UcSdKVZBB4pQWKURJg-42" value="" style="edgeStyle=orthogonalEdgeStyle;rounded=0;orthogonalLoop=1;jettySize=auto;html=1;" edge="1" parent="1" source="u2UcSdKVZBB4pQWKURJg-11" target="u2UcSdKVZBB4pQWKURJg-41">
          <mxGeometry relative="1" as="geometry" />
        </mxCell>
        <mxCell id="u2UcSdKVZBB4pQWKURJg-11" value="" style="shadow=0;dashed=0;html=1;strokeColor=none;fillColor=#4495D1;labelPosition=center;verticalLabelPosition=bottom;verticalAlign=top;align=center;outlineConnect=0;shape=mxgraph.veeam.2d.virtual_machine;" vertex="1" parent="1">
          <mxGeometry x="490.6" y="383" width="44.8" height="44" as="geometry" />
        </mxCell>
        <mxCell id="u2UcSdKVZBB4pQWKURJg-44" value="" style="edgeStyle=orthogonalEdgeStyle;rounded=0;orthogonalLoop=1;jettySize=auto;html=1;" edge="1" parent="1" source="u2UcSdKVZBB4pQWKURJg-12" target="u2UcSdKVZBB4pQWKURJg-43">
          <mxGeometry relative="1" as="geometry" />
        </mxCell>
        <mxCell id="u2UcSdKVZBB4pQWKURJg-12" value="" style="shadow=0;dashed=0;html=1;strokeColor=none;fillColor=#4495D1;labelPosition=center;verticalLabelPosition=bottom;verticalAlign=top;align=center;outlineConnect=0;shape=mxgraph.veeam.2d.virtual_machine;" vertex="1" parent="1">
          <mxGeometry x="589.2" y="383" width="44.8" height="44" as="geometry" />
        </mxCell>
        <mxCell id="u2UcSdKVZBB4pQWKURJg-46" value="" style="edgeStyle=orthogonalEdgeStyle;rounded=0;orthogonalLoop=1;jettySize=auto;html=1;" edge="1" parent="1" source="u2UcSdKVZBB4pQWKURJg-13" target="u2UcSdKVZBB4pQWKURJg-45">
          <mxGeometry relative="1" as="geometry" />
        </mxCell>
        <mxCell id="u2UcSdKVZBB4pQWKURJg-13" value="" style="shadow=0;dashed=0;html=1;strokeColor=none;fillColor=#4495D1;labelPosition=center;verticalLabelPosition=bottom;verticalAlign=top;align=center;outlineConnect=0;shape=mxgraph.veeam.2d.virtual_machine;" vertex="1" parent="1">
          <mxGeometry x="691.6" y="383" width="44.8" height="44" as="geometry" />
        </mxCell>
        <mxCell id="u2UcSdKVZBB4pQWKURJg-15" value="" style="edgeStyle=orthogonalEdgeStyle;rounded=0;orthogonalLoop=1;jettySize=auto;html=1;" edge="1" parent="1" source="u2UcSdKVZBB4pQWKURJg-14" target="u2UcSdKVZBB4pQWKURJg-7">
          <mxGeometry relative="1" as="geometry" />
        </mxCell>
        <mxCell id="u2UcSdKVZBB4pQWKURJg-14" value="FRACTAL" style="text;html=1;align=center;verticalAlign=middle;whiteSpace=wrap;rounded=0;" vertex="1" parent="1">
          <mxGeometry x="83.99999999999994" y="330" width="60" height="30" as="geometry" />
        </mxCell>
        <mxCell id="u2UcSdKVZBB4pQWKURJg-18" value="" style="edgeStyle=orthogonalEdgeStyle;rounded=0;orthogonalLoop=1;jettySize=auto;html=1;" edge="1" parent="1" source="u2UcSdKVZBB4pQWKURJg-16" target="u2UcSdKVZBB4pQWKURJg-8">
          <mxGeometry relative="1" as="geometry" />
        </mxCell>
        <mxCell id="u2UcSdKVZBB4pQWKURJg-16" value="TRIONIX" style="text;html=1;align=center;verticalAlign=middle;whiteSpace=wrap;rounded=0;" vertex="1" parent="1">
          <mxGeometry x="183.99999999999994" y="330" width="60" height="30" as="geometry" />
        </mxCell>
        <mxCell id="u2UcSdKVZBB4pQWKURJg-24" value="" style="edgeStyle=orthogonalEdgeStyle;rounded=0;orthogonalLoop=1;jettySize=auto;html=1;" edge="1" parent="1" source="u2UcSdKVZBB4pQWKURJg-19" target="u2UcSdKVZBB4pQWKURJg-9">
          <mxGeometry relative="1" as="geometry" />
        </mxCell>
        <mxCell id="u2UcSdKVZBB4pQWKURJg-19" value="EDSON" style="text;html=1;align=center;verticalAlign=middle;whiteSpace=wrap;rounded=0;" vertex="1" parent="1">
          <mxGeometry x="283.99999999999994" y="330" width="60" height="30" as="geometry" />
        </mxCell>
        <mxCell id="u2UcSdKVZBB4pQWKURJg-26" value="" style="edgeStyle=orthogonalEdgeStyle;rounded=0;orthogonalLoop=1;jettySize=auto;html=1;" edge="1" parent="1" source="u2UcSdKVZBB4pQWKURJg-20" target="u2UcSdKVZBB4pQWKURJg-10">
          <mxGeometry relative="1" as="geometry" />
        </mxCell>
        <mxCell id="u2UcSdKVZBB4pQWKURJg-20" value="CAT" style="text;html=1;align=center;verticalAlign=middle;whiteSpace=wrap;rounded=0;" vertex="1" parent="1">
          <mxGeometry x="383.99999999999994" y="330" width="60" height="30" as="geometry" />
        </mxCell>
        <mxCell id="u2UcSdKVZBB4pQWKURJg-27" value="" style="edgeStyle=orthogonalEdgeStyle;rounded=0;orthogonalLoop=1;jettySize=auto;html=1;" edge="1" parent="1" source="u2UcSdKVZBB4pQWKURJg-21" target="u2UcSdKVZBB4pQWKURJg-11">
          <mxGeometry relative="1" as="geometry" />
        </mxCell>
        <mxCell id="u2UcSdKVZBB4pQWKURJg-21" value="EXATA" style="text;html=1;align=center;verticalAlign=middle;whiteSpace=wrap;rounded=0;" vertex="1" parent="1">
          <mxGeometry x="483" y="330" width="60" height="30" as="geometry" />
        </mxCell>
        <mxCell id="u2UcSdKVZBB4pQWKURJg-29" value="" style="edgeStyle=orthogonalEdgeStyle;rounded=0;orthogonalLoop=1;jettySize=auto;html=1;" edge="1" parent="1" source="u2UcSdKVZBB4pQWKURJg-28" target="u2UcSdKVZBB4pQWKURJg-12">
          <mxGeometry relative="1" as="geometry" />
        </mxCell>
        <mxCell id="u2UcSdKVZBB4pQWKURJg-28" value="GAV" style="text;html=1;align=center;verticalAlign=middle;whiteSpace=wrap;rounded=0;" vertex="1" parent="1">
          <mxGeometry x="581.6" y="330" width="60" height="30" as="geometry" />
        </mxCell>
        <mxCell id="u2UcSdKVZBB4pQWKURJg-31" value="" style="edgeStyle=orthogonalEdgeStyle;rounded=0;orthogonalLoop=1;jettySize=auto;html=1;" edge="1" parent="1" source="u2UcSdKVZBB4pQWKURJg-30" target="u2UcSdKVZBB4pQWKURJg-13">
          <mxGeometry relative="1" as="geometry" />
        </mxCell>
        <mxCell id="u2UcSdKVZBB4pQWKURJg-30" value="LANÃA" style="text;html=1;align=center;verticalAlign=middle;whiteSpace=wrap;rounded=0;" vertex="1" parent="1">
          <mxGeometry x="684" y="330" width="60" height="30" as="geometry" />
        </mxCell>
        <mxCell id="u2UcSdKVZBB4pQWKURJg-32" value="VLAN-101&lt;div&gt;192.168.101.1/29&lt;/div&gt;" style="text;html=1;align=center;verticalAlign=middle;whiteSpace=wrap;rounded=0;" vertex="1" parent="1">
          <mxGeometry x="84" y="450" width="60" height="30" as="geometry" />
        </mxCell>
        <mxCell id="u2UcSdKVZBB4pQWKURJg-33" value="VLAN-102&lt;div&gt;192.168.102&lt;span style=&quot;background-color: initial;&quot;&gt;.1/29&lt;/span&gt;&lt;/div&gt;" style="text;html=1;align=center;verticalAlign=middle;whiteSpace=wrap;rounded=0;" vertex="1" parent="1">
          <mxGeometry x="184" y="450" width="60" height="30" as="geometry" />
        </mxCell>
        <mxCell id="u2UcSdKVZBB4pQWKURJg-37" value="VLAN-103&lt;div&gt;192.168.103.1/30&lt;/div&gt;" style="text;html=1;align=center;verticalAlign=middle;whiteSpace=wrap;rounded=0;" vertex="1" parent="1">
          <mxGeometry x="284" y="450" width="60" height="30" as="geometry" />
        </mxCell>
        <mxCell id="u2UcSdKVZBB4pQWKURJg-39" value="VLAN-104&lt;div&gt;192.168.104.1/30&lt;/div&gt;" style="text;html=1;align=center;verticalAlign=middle;whiteSpace=wrap;rounded=0;" vertex="1" parent="1">
          <mxGeometry x="384" y="450" width="60" height="30" as="geometry" />
        </mxCell>
        <mxCell id="u2UcSdKVZBB4pQWKURJg-41" value="VLAN-105&lt;div&gt;192.168.105.1/30&lt;/div&gt;" style="text;html=1;align=center;verticalAlign=middle;whiteSpace=wrap;rounded=0;" vertex="1" parent="1">
          <mxGeometry x="483" y="450" width="60" height="30" as="geometry" />
        </mxCell>
        <mxCell id="u2UcSdKVZBB4pQWKURJg-43" value="VLAN-106&lt;div&gt;192.168.106.1/28&lt;/div&gt;" style="text;html=1;align=center;verticalAlign=middle;whiteSpace=wrap;rounded=0;" vertex="1" parent="1">
          <mxGeometry x="581.6" y="450" width="60" height="30" as="geometry" />
        </mxCell>
        <mxCell id="u2UcSdKVZBB4pQWKURJg-45" value="VLAN-107&lt;div&gt;192.168.107.1/30&lt;/div&gt;" style="text;html=1;align=center;verticalAlign=middle;whiteSpace=wrap;rounded=0;" vertex="1" parent="1">
          <mxGeometry x="684" y="450" width="60" height="30" as="geometry" />
        </mxCell>
      </root>
    </mxGraphModel>
  </diagram>
</mxfile>
